<mxfile host="app.diagrams.net" modified="2023-08-23T02:35:17.978Z" agent="Mozilla/5.0 (Windows NT 10.0; Win64; x64) AppleWebKit/537.36 (KHTML, like Gecko) Chrome/116.0.0.0 Safari/537.36" etag="pCce_z-JVroGc8O73oRs" version="21.6.9" type="github">
  <diagram name="Page-1" id="edf60f1a-56cd-e834-aa8a-f176f3a09ee4">
    <mxGraphModel dx="1687" dy="929" grid="1" gridSize="10" guides="1" tooltips="1" connect="1" arrows="1" fold="1" page="1" pageScale="1" pageWidth="1100" pageHeight="850" background="none" math="0" shadow="0">
      <root>
        <mxCell id="0" />
        <mxCell id="1" parent="0" />
        <mxCell id="60e70716793133e9-32" style="edgeStyle=orthogonalEdgeStyle;rounded=0;html=1;labelBackgroundColor=none;startSize=5;endArrow=classicThin;endFill=1;endSize=5;jettySize=auto;orthogonalLoop=1;strokeWidth=1;fontFamily=Verdana;fontSize=8" parent="1" source="60e70716793133e9-4" target="60e70716793133e9-5" edge="1">
          <mxGeometry relative="1" as="geometry" />
        </mxCell>
        <mxCell id="60e70716793133e9-4" value="성경읽기 화면 호출" style="rounded=0;whiteSpace=wrap;html=1;shadow=1;labelBackgroundColor=none;strokeWidth=1;fontFamily=Verdana;fontSize=8;align=center;" parent="1" vertex="1">
          <mxGeometry x="190" y="70" width="130" height="40" as="geometry" />
        </mxCell>
        <mxCell id="60e70716793133e9-33" value="No" style="edgeStyle=orthogonalEdgeStyle;rounded=0;html=1;labelBackgroundColor=none;startSize=5;endArrow=classicThin;endFill=1;endSize=5;jettySize=auto;orthogonalLoop=1;strokeWidth=1;fontFamily=Verdana;fontSize=8;entryX=0;entryY=0.5;entryDx=0;entryDy=0;entryPerimeter=0;" parent="1" source="60e70716793133e9-5" target="bt48OG6wO4SEdswu65my-1" edge="1">
          <mxGeometry x="-0.7778" y="10" relative="1" as="geometry">
            <mxPoint as="offset" />
            <mxPoint x="420" y="215" as="targetPoint" />
          </mxGeometry>
        </mxCell>
        <mxCell id="60e70716793133e9-37" value="Yes" style="edgeStyle=orthogonalEdgeStyle;rounded=0;html=1;labelBackgroundColor=none;startSize=5;endArrow=classicThin;endFill=1;endSize=5;jettySize=auto;orthogonalLoop=1;strokeWidth=1;fontFamily=Verdana;fontSize=8" parent="1" source="60e70716793133e9-5" target="60e70716793133e9-9" edge="1">
          <mxGeometry x="-0.5" y="10" relative="1" as="geometry">
            <mxPoint as="offset" />
          </mxGeometry>
        </mxCell>
        <mxCell id="60e70716793133e9-5" value="일정 설정" style="rhombus;whiteSpace=wrap;html=1;rounded=0;shadow=1;labelBackgroundColor=none;strokeWidth=1;fontFamily=Verdana;fontSize=8;align=center;" parent="1" vertex="1">
          <mxGeometry x="200" y="140" width="110" height="60" as="geometry" />
        </mxCell>
        <mxCell id="60e70716793133e9-38" style="edgeStyle=orthogonalEdgeStyle;rounded=0;html=1;labelBackgroundColor=none;startSize=5;endArrow=classicThin;endFill=1;endSize=5;jettySize=auto;orthogonalLoop=1;strokeWidth=1;fontFamily=Verdana;fontSize=8;entryX=0.5;entryY=0;entryDx=0;entryDy=0;" parent="1" source="60e70716793133e9-9" target="bt48OG6wO4SEdswu65my-2" edge="1">
          <mxGeometry relative="1" as="geometry">
            <mxPoint x="250" y="520" as="targetPoint" />
          </mxGeometry>
        </mxCell>
        <mxCell id="60e70716793133e9-9" value="시작일과 종료일을 선택" style="whiteSpace=wrap;html=1;rounded=0;shadow=1;labelBackgroundColor=none;strokeWidth=1;fontFamily=Verdana;fontSize=8;align=center;" parent="1" vertex="1">
          <mxGeometry x="191.25" y="240" width="127.5" height="30" as="geometry" />
        </mxCell>
        <mxCell id="bt48OG6wO4SEdswu65my-10" value="" style="edgeStyle=orthogonalEdgeStyle;rounded=0;orthogonalLoop=1;jettySize=auto;html=1;" edge="1" parent="1" source="60e70716793133e9-10">
          <mxGeometry relative="1" as="geometry">
            <mxPoint x="290" y="327.5" as="targetPoint" />
          </mxGeometry>
        </mxCell>
        <mxCell id="bt48OG6wO4SEdswu65my-11" value="" style="edgeStyle=orthogonalEdgeStyle;rounded=0;orthogonalLoop=1;jettySize=auto;html=1;" edge="1" parent="1" source="60e70716793133e9-10">
          <mxGeometry relative="1" as="geometry">
            <mxPoint x="290" y="327.5" as="targetPoint" />
          </mxGeometry>
        </mxCell>
        <mxCell id="60e70716793133e9-10" value="디폴트 10분으로 설정" style="whiteSpace=wrap;html=1;rounded=0;shadow=1;labelBackgroundColor=none;strokeWidth=1;fontFamily=Verdana;fontSize=8;align=center;" parent="1" vertex="1">
          <mxGeometry x="370" y="307.5" width="120" height="40" as="geometry" />
        </mxCell>
        <mxCell id="bt48OG6wO4SEdswu65my-1" value="End" style="strokeWidth=1;html=1;shape=mxgraph.flowchart.terminator;whiteSpace=wrap;rounded=0;shadow=1;labelBackgroundColor=none;fontFamily=Verdana;fontSize=8;align=center;" vertex="1" parent="1">
          <mxGeometry x="520" y="155" width="60" height="30" as="geometry" />
        </mxCell>
        <mxCell id="bt48OG6wO4SEdswu65my-2" value="시간 설정" style="rhombus;whiteSpace=wrap;html=1;rounded=0;shadow=1;labelBackgroundColor=none;strokeWidth=1;fontFamily=Verdana;fontSize=8;align=center;" vertex="1" parent="1">
          <mxGeometry x="200" y="300" width="110" height="55" as="geometry" />
        </mxCell>
        <mxCell id="bt48OG6wO4SEdswu65my-4" value="No" style="edgeStyle=orthogonalEdgeStyle;rounded=0;html=1;labelBackgroundColor=none;startSize=5;endArrow=classicThin;endFill=1;endSize=5;jettySize=auto;orthogonalLoop=1;strokeWidth=1;fontFamily=Verdana;fontSize=8;exitX=1;exitY=0.5;exitDx=0;exitDy=0;entryX=0;entryY=0.5;entryDx=0;entryDy=0;" edge="1" parent="1" source="bt48OG6wO4SEdswu65my-2" target="60e70716793133e9-10">
          <mxGeometry x="-0.7778" y="10" relative="1" as="geometry">
            <mxPoint as="offset" />
            <mxPoint x="330" y="489.5" as="sourcePoint" />
            <mxPoint x="420" y="489.5" as="targetPoint" />
          </mxGeometry>
        </mxCell>
        <mxCell id="bt48OG6wO4SEdswu65my-5" style="edgeStyle=orthogonalEdgeStyle;rounded=0;html=1;labelBackgroundColor=none;startSize=5;endArrow=classicThin;endFill=1;endSize=5;jettySize=auto;orthogonalLoop=1;strokeWidth=1;fontFamily=Verdana;fontSize=8;exitX=0.5;exitY=1;exitDx=0;exitDy=0;entryX=0.5;entryY=0;entryDx=0;entryDy=0;" edge="1" parent="1" source="bt48OG6wO4SEdswu65my-2" target="bt48OG6wO4SEdswu65my-6">
          <mxGeometry relative="1" as="geometry">
            <mxPoint x="254.5" y="370" as="sourcePoint" />
            <mxPoint x="255" y="390" as="targetPoint" />
          </mxGeometry>
        </mxCell>
        <mxCell id="bt48OG6wO4SEdswu65my-6" value="일수에 맞춰서 하루에 읽어야 할 성경 장 계산" style="whiteSpace=wrap;html=1;rounded=0;shadow=1;labelBackgroundColor=none;strokeWidth=1;fontFamily=Verdana;fontSize=8;align=center;" vertex="1" parent="1">
          <mxGeometry x="195" y="400" width="120" height="40" as="geometry" />
        </mxCell>
        <mxCell id="bt48OG6wO4SEdswu65my-7" value="성경읽기" style="rhombus;whiteSpace=wrap;html=1;rounded=0;shadow=1;labelBackgroundColor=none;strokeWidth=1;fontFamily=Verdana;fontSize=8;align=center;" vertex="1" parent="1">
          <mxGeometry x="200" y="470" width="110" height="55" as="geometry" />
        </mxCell>
        <mxCell id="bt48OG6wO4SEdswu65my-8" style="edgeStyle=orthogonalEdgeStyle;rounded=0;html=1;labelBackgroundColor=none;startSize=5;endArrow=classicThin;endFill=1;endSize=5;jettySize=auto;orthogonalLoop=1;strokeWidth=1;fontFamily=Verdana;fontSize=8;exitX=0.5;exitY=1;exitDx=0;exitDy=0;" edge="1" parent="1" source="bt48OG6wO4SEdswu65my-6" target="bt48OG6wO4SEdswu65my-7">
          <mxGeometry relative="1" as="geometry">
            <mxPoint x="400" y="445" as="sourcePoint" />
            <mxPoint x="400" y="490" as="targetPoint" />
          </mxGeometry>
        </mxCell>
        <mxCell id="bt48OG6wO4SEdswu65my-12" value="다시 계산" style="whiteSpace=wrap;html=1;rounded=0;shadow=1;labelBackgroundColor=none;strokeWidth=1;fontFamily=Verdana;fontSize=8;align=center;" vertex="1" parent="1">
          <mxGeometry x="375" y="477.5" width="120" height="40" as="geometry" />
        </mxCell>
        <mxCell id="bt48OG6wO4SEdswu65my-13" value="No" style="edgeStyle=orthogonalEdgeStyle;rounded=0;html=1;labelBackgroundColor=none;startSize=5;endArrow=classicThin;endFill=1;endSize=5;jettySize=auto;orthogonalLoop=1;strokeWidth=1;fontFamily=Verdana;fontSize=8;exitX=1;exitY=0.5;exitDx=0;exitDy=0;entryX=0;entryY=0.5;entryDx=0;entryDy=0;" edge="1" parent="1" target="bt48OG6wO4SEdswu65my-12" source="bt48OG6wO4SEdswu65my-7">
          <mxGeometry x="-0.7778" y="10" relative="1" as="geometry">
            <mxPoint as="offset" />
            <mxPoint x="315" y="498" as="sourcePoint" />
            <mxPoint x="425" y="659.5" as="targetPoint" />
          </mxGeometry>
        </mxCell>
        <mxCell id="bt48OG6wO4SEdswu65my-14" style="edgeStyle=orthogonalEdgeStyle;rounded=0;html=1;labelBackgroundColor=none;startSize=5;endArrow=classicThin;endFill=1;endSize=5;jettySize=auto;orthogonalLoop=1;strokeWidth=1;fontFamily=Verdana;fontSize=8;exitX=0.5;exitY=1;exitDx=0;exitDy=0;entryX=1;entryY=0.5;entryDx=0;entryDy=0;" edge="1" parent="1" source="60e70716793133e9-10" target="bt48OG6wO4SEdswu65my-6">
          <mxGeometry relative="1" as="geometry">
            <Array as="points">
              <mxPoint x="430" y="420" />
            </Array>
            <mxPoint x="800" y="222.5" as="sourcePoint" />
            <mxPoint x="770" y="390" as="targetPoint" />
          </mxGeometry>
        </mxCell>
        <mxCell id="bt48OG6wO4SEdswu65my-15" style="edgeStyle=orthogonalEdgeStyle;rounded=0;html=1;labelBackgroundColor=none;startSize=5;endArrow=classicThin;endFill=1;endSize=5;jettySize=auto;orthogonalLoop=1;strokeWidth=1;fontFamily=Verdana;fontSize=8;exitX=1;exitY=0.5;exitDx=0;exitDy=0;entryX=1;entryY=0.5;entryDx=0;entryDy=0;" edge="1" parent="1" source="bt48OG6wO4SEdswu65my-12" target="bt48OG6wO4SEdswu65my-6">
          <mxGeometry relative="1" as="geometry">
            <Array as="points">
              <mxPoint x="520" y="498" />
              <mxPoint x="520" y="420" />
            </Array>
            <mxPoint x="675" y="461.5" as="sourcePoint" />
            <mxPoint x="560" y="533.5" as="targetPoint" />
          </mxGeometry>
        </mxCell>
        <mxCell id="bt48OG6wO4SEdswu65my-16" value="Yes" style="edgeStyle=orthogonalEdgeStyle;rounded=0;html=1;labelBackgroundColor=none;startSize=5;endArrow=classicThin;endFill=1;endSize=5;jettySize=auto;orthogonalLoop=1;strokeWidth=1;fontFamily=Verdana;fontSize=8;exitX=0.5;exitY=1;exitDx=0;exitDy=0;entryX=0.5;entryY=0;entryDx=0;entryDy=0;" edge="1" parent="1" target="bt48OG6wO4SEdswu65my-19">
          <mxGeometry x="-0.5077" y="15" relative="1" as="geometry">
            <mxPoint as="offset" />
            <mxPoint x="255" y="524" as="sourcePoint" />
            <mxPoint x="255" y="580" as="targetPoint" />
          </mxGeometry>
        </mxCell>
        <mxCell id="bt48OG6wO4SEdswu65my-19" value="66권 확인" style="rhombus;whiteSpace=wrap;html=1;rounded=0;shadow=1;labelBackgroundColor=none;strokeWidth=1;fontFamily=Verdana;fontSize=8;align=center;" vertex="1" parent="1">
          <mxGeometry x="200" y="550" width="110" height="60" as="geometry" />
        </mxCell>
        <mxCell id="bt48OG6wO4SEdswu65my-20" value="No" style="edgeStyle=orthogonalEdgeStyle;rounded=0;html=1;labelBackgroundColor=none;startSize=5;endArrow=classicThin;endFill=1;endSize=5;jettySize=auto;orthogonalLoop=1;strokeWidth=1;fontFamily=Verdana;fontSize=8;exitX=1;exitY=0.5;exitDx=0;exitDy=0;entryX=0;entryY=0.5;entryDx=0;entryDy=0;entryPerimeter=0;" edge="1" parent="1" source="bt48OG6wO4SEdswu65my-19" target="bt48OG6wO4SEdswu65my-21">
          <mxGeometry x="-0.7778" y="10" relative="1" as="geometry">
            <mxPoint as="offset" />
            <mxPoint x="310" y="609.5" as="sourcePoint" />
            <mxPoint x="375" y="609.5" as="targetPoint" />
          </mxGeometry>
        </mxCell>
        <mxCell id="bt48OG6wO4SEdswu65my-21" value="End" style="strokeWidth=1;html=1;shape=mxgraph.flowchart.terminator;whiteSpace=wrap;rounded=0;shadow=1;labelBackgroundColor=none;fontFamily=Verdana;fontSize=8;align=center;" vertex="1" parent="1">
          <mxGeometry x="519" y="565" width="60" height="30" as="geometry" />
        </mxCell>
        <mxCell id="bt48OG6wO4SEdswu65my-22" value="Yes" style="edgeStyle=orthogonalEdgeStyle;rounded=0;html=1;labelBackgroundColor=none;startSize=5;endArrow=classicThin;endFill=1;endSize=5;jettySize=auto;orthogonalLoop=1;strokeWidth=1;fontFamily=Verdana;fontSize=8;exitX=0.5;exitY=1;exitDx=0;exitDy=0;entryX=0.5;entryY=0;entryDx=0;entryDy=0;" edge="1" parent="1" source="bt48OG6wO4SEdswu65my-19" target="bt48OG6wO4SEdswu65my-23">
          <mxGeometry x="-0.5077" y="15" relative="1" as="geometry">
            <mxPoint as="offset" />
            <mxPoint x="265" y="650" as="sourcePoint" />
            <mxPoint x="265" y="706" as="targetPoint" />
          </mxGeometry>
        </mxCell>
        <mxCell id="bt48OG6wO4SEdswu65my-23" value="성경마다 배지 부여" style="whiteSpace=wrap;html=1;rounded=0;shadow=1;labelBackgroundColor=none;strokeWidth=1;fontFamily=Verdana;fontSize=8;align=center;" vertex="1" parent="1">
          <mxGeometry x="195" y="640" width="120" height="40" as="geometry" />
        </mxCell>
        <mxCell id="bt48OG6wO4SEdswu65my-24" value="모든성경완료" style="rhombus;whiteSpace=wrap;html=1;rounded=0;shadow=1;labelBackgroundColor=none;strokeWidth=1;fontFamily=Verdana;fontSize=8;align=center;" vertex="1" parent="1">
          <mxGeometry x="198.75" y="710" width="110" height="60" as="geometry" />
        </mxCell>
        <mxCell id="bt48OG6wO4SEdswu65my-26" value="Yes" style="edgeStyle=orthogonalEdgeStyle;rounded=0;html=1;labelBackgroundColor=none;startSize=5;endArrow=classicThin;endFill=1;endSize=5;jettySize=auto;orthogonalLoop=1;strokeWidth=1;fontFamily=Verdana;fontSize=8;exitX=0.5;exitY=1;exitDx=0;exitDy=0;entryX=0.5;entryY=0;entryDx=0;entryDy=0;" edge="1" parent="1" source="bt48OG6wO4SEdswu65my-23" target="bt48OG6wO4SEdswu65my-24">
          <mxGeometry x="-0.5077" y="15" relative="1" as="geometry">
            <mxPoint as="offset" />
            <mxPoint x="429.5" y="740" as="sourcePoint" />
            <mxPoint x="429.5" y="780" as="targetPoint" />
          </mxGeometry>
        </mxCell>
        <mxCell id="bt48OG6wO4SEdswu65my-27" value="No" style="edgeStyle=orthogonalEdgeStyle;rounded=0;html=1;labelBackgroundColor=none;startSize=5;endArrow=classicThin;endFill=1;endSize=5;jettySize=auto;orthogonalLoop=1;strokeWidth=1;fontFamily=Verdana;fontSize=8;exitX=1;exitY=0.5;exitDx=0;exitDy=0;entryX=0;entryY=0.5;entryDx=0;entryDy=0;entryPerimeter=0;" edge="1" parent="1" target="bt48OG6wO4SEdswu65my-28" source="bt48OG6wO4SEdswu65my-24">
          <mxGeometry x="-0.7778" y="10" relative="1" as="geometry">
            <mxPoint as="offset" />
            <mxPoint x="309" y="792" as="sourcePoint" />
            <mxPoint x="374" y="791.5" as="targetPoint" />
          </mxGeometry>
        </mxCell>
        <mxCell id="bt48OG6wO4SEdswu65my-28" value="End" style="strokeWidth=1;html=1;shape=mxgraph.flowchart.terminator;whiteSpace=wrap;rounded=0;shadow=1;labelBackgroundColor=none;fontFamily=Verdana;fontSize=8;align=center;" vertex="1" parent="1">
          <mxGeometry x="520" y="725" width="60" height="30" as="geometry" />
        </mxCell>
        <mxCell id="bt48OG6wO4SEdswu65my-29" value="1독 완료&amp;nbsp;" style="whiteSpace=wrap;html=1;rounded=0;shadow=1;labelBackgroundColor=none;strokeWidth=1;fontFamily=Verdana;fontSize=8;align=center;" vertex="1" parent="1">
          <mxGeometry x="195" y="800" width="120" height="40" as="geometry" />
        </mxCell>
        <mxCell id="bt48OG6wO4SEdswu65my-30" value="Yes" style="edgeStyle=orthogonalEdgeStyle;rounded=0;html=1;labelBackgroundColor=none;startSize=5;endArrow=classicThin;endFill=1;endSize=5;jettySize=auto;orthogonalLoop=1;strokeWidth=1;fontFamily=Verdana;fontSize=8;exitX=0.5;exitY=1;exitDx=0;exitDy=0;entryX=0.5;entryY=0;entryDx=0;entryDy=0;" edge="1" parent="1" source="bt48OG6wO4SEdswu65my-24" target="bt48OG6wO4SEdswu65my-29">
          <mxGeometry x="-0.5077" y="15" relative="1" as="geometry">
            <mxPoint as="offset" />
            <mxPoint x="390" y="830" as="sourcePoint" />
            <mxPoint x="390" y="872" as="targetPoint" />
          </mxGeometry>
        </mxCell>
        <mxCell id="bt48OG6wO4SEdswu65my-34" value="Yes" style="edgeStyle=orthogonalEdgeStyle;rounded=0;html=1;labelBackgroundColor=none;startSize=5;endArrow=classicThin;endFill=1;endSize=5;jettySize=auto;orthogonalLoop=1;strokeWidth=1;fontFamily=Verdana;fontSize=8;exitX=0.452;exitY=1.025;exitDx=0;exitDy=0;exitPerimeter=0;entryX=0.5;entryY=0;entryDx=0;entryDy=0;entryPerimeter=0;" edge="1" parent="1" source="bt48OG6wO4SEdswu65my-29" target="bt48OG6wO4SEdswu65my-35">
          <mxGeometry x="-0.5077" y="15" relative="1" as="geometry">
            <mxPoint as="offset" />
            <mxPoint x="265" y="650" as="sourcePoint" />
            <mxPoint x="253" y="920" as="targetPoint" />
          </mxGeometry>
        </mxCell>
        <mxCell id="bt48OG6wO4SEdswu65my-35" value="End" style="strokeWidth=1;html=1;shape=mxgraph.flowchart.terminator;whiteSpace=wrap;rounded=0;shadow=1;labelBackgroundColor=none;fontFamily=Verdana;fontSize=8;align=center;" vertex="1" parent="1">
          <mxGeometry x="223.75" y="880" width="60" height="30" as="geometry" />
        </mxCell>
      </root>
    </mxGraphModel>
  </diagram>
</mxfile>
